<svg id="svg" xmlns="http://www.w3.org/2000/svg" xmlns:xlink="http://www.w3.org/1999/xlink" width="400" height="400" viewBox="0, 0, 400,400"><g id="svgg"><path id="path0" d="M198.530 54.689 C 194.011 55.726,194.922 54.142,170.858 102.824 C 159.368 126.067,149.886 145.166,149.787 145.265 C 149.688 145.364,128.734 148.482,103.222 152.194 C 77.709 155.906,56.062 159.137,55.117 159.375 C 47.517 161.284,45.420 167.197,50.054 173.650 C 50.744 174.610,63.187 186.936,77.705 201.041 C 92.223 215.147,107.399 229.937,111.429 233.910 L 118.757 241.132 110.707 287.851 C 101.828 339.388,101.954 338.363,104.037 341.917 C 105.908 345.110,109.073 346.226,113.236 345.160 C 114.832 344.751,129.128 337.437,157.685 322.421 C 196.194 302.171,199.872 300.319,200.844 300.685 C 201.428 300.906,219.873 310.532,241.834 322.076 C 263.794 333.621,282.916 343.606,284.326 344.266 C 291.483 347.616,296.829 344.481,297.197 336.719 C 297.309 334.349,283.242 249.280,281.488 241.721 C 281.381 241.260,291.730 230.924,315.455 207.797 C 334.898 188.843,350.067 173.754,350.719 172.717 C 354.786 166.255,352.242 161.064,344.103 159.214 C 342.727 158.901,321.387 155.724,296.680 152.153 C 271.973 148.582,251.400 145.515,250.963 145.338 C 250.398 145.108,244.066 132.662,229.088 102.335 C 211.220 66.158,207.723 59.340,206.136 57.587 C 203.867 55.080,201.219 54.071,198.530 54.689 " stroke="none" fill="#fcbc4c" fill-rule="evenodd"></path><path id="path1" d="" stroke="none" fill="#100bc4c" fill-rule="evenodd"></path><path id="path2" d="" stroke="none" fill="#100bc4c" fill-rule="evenodd"></path><path id="path3" d="" stroke="none" fill="#100bc4c" fill-rule="evenodd"></path><path id="path4" d="" stroke="none" fill="#100bc4c" fill-rule="evenodd"></path></g></svg>